<svg xmlns="http://www.w3.org/2000/svg" viewBox="0 0 1479 1134" width="1479" height="1134" preserveAspectRatio="xMidYMid meet" style="width: 100%; height: 100%; transform: translate3d(0px, 0px, 0px);"><defs><clipPath id="__lottie_element_4"><rect width="1479" height="1134" x="0" y="0"></rect></clipPath><clipPath id="__lottie_element_6"><path d="M0,0 L216,0 L216,231 L0,231z"></path></clipPath><filter id="__lottie_element_35" filterUnits="objectBoundingBox" x="0%" y="0%" width="100%" height="100%"><feGaussianBlur stdDeviation="0"></feGaussianBlur></filter><clipPath id="__lottie_element_44"><path d="M0,0 L210,0 L210,297 L0,297z"></path></clipPath><mask id="__lottie_element_48"><g transform="matrix(1,0,0,1,102.9000015258789,110.85199737548828)" opacity="1" style="display: block;"><path fill="rgb(255,0,0)" fill-opacity="1" d=" M0,58.56 C-32.46,58.56 -58.8,32.34 -58.8,0 C-58.8,-32.34 -32.46,-58.56 0,-58.56 C32.46,-58.56 58.8,-32.34 58.8,0 C58.8,32.34 32.46,58.56 0,58.56z M0,27.2 C15.09,27.2 27.3,15.02 27.3,-0.01 C27.3,-15.01 15.09,-27.19 0,-27.19 C-15.09,-27.19 -27.3,-15.01 -27.3,-0.01 C-27.3,15.02 -15.09,27.2 0,27.2z"></path><g opacity="1" transform="matrix(3,0,0,3,0,0)"><path fill="rgb(232,232,232)" fill-opacity="1" d=" M0,19.518999099731445 C-10.819999694824219,19.518999099731445 -19.600000381469727,10.779000282287598 -19.600000381469727,-0.0010000000474974513 C-19.600000381469727,-10.781000137329102 -10.819999694824219,-19.520999908447266 0,-19.520999908447266 C10.819999694824219,-19.520999908447266 19.600000381469727,-10.781000137329102 19.600000381469727,-0.0010000000474974513 C19.600000381469727,10.779000282287598 10.819999694824219,19.518999099731445 0,19.518999099731445z M0,9.067000389099121 C5.03000020980835,9.067000389099121 9.100000381469727,5.006999969482422 9.100000381469727,-0.003000000026077032 C9.100000381469727,-5.002999782562256 5.03000020980835,-9.062999725341797 0,-9.062999725341797 C-5.03000020980835,-9.062999725341797 -9.100000381469727,-5.002999782562256 -9.100000381469727,-0.003000000026077032 C-9.100000381469727,5.006999969482422 -5.03000020980835,9.067000389099121 0,9.067000389099121z"></path></g></g></mask><filter id="__lottie_element_65" filterUnits="objectBoundingBox" x="0%" y="0%" width="100%" height="100%"><feGaussianBlur stdDeviation="0"></feGaussianBlur></filter><clipPath id="__lottie_element_97"><path d="M0,0 L615,0 L615,372 L0,372z"></path></clipPath><clipPath id="__lottie_element_107"><path d="M0,0 L615,0 L615,531 L0,531z"></path></clipPath><mask id="__lottie_element_113"><g transform="matrix(1,0,0,1,180,8)" opacity="1" style="display: block;"><g opacity="1" transform="matrix(1,0,0,1,0,0)"><path stroke-linecap="butt" stroke-linejoin="miter" fill-opacity="0" stroke-miterlimit="4" stroke="rgb(75,193,251)" stroke-opacity="0.5" stroke-width="1" d=" M255,0 C255,0 255,255 255,255 C255,255 0,255 0,255 C0,255 0,0 0,0 C0,0 255,0 255,0z"></path><path fill="rgb(0,0,0)" fill-opacity="0" d=" M255,0 C255,0 255,255 255,255 C255,255 0,255 0,255 C0,255 0,0 0,0 C0,0 255,0 255,0z"></path></g></g></mask><mask id="__lottie_element_116"><g transform="matrix(1,0,0,1,306.49298095703125,134.36199951171875)" opacity="1" style="display: block;"><path fill="rgb(255,0,0)" fill-opacity="1" d=" M126.5,0.01 C126.5,69.73 69.86,126.25 -0.01,126.25 C-69.85,126.25 -126.49,69.73 -126.49,0.01 C-126.49,-69.74 -69.85,-126.26 -0.01,-126.26 C69.86,-126.26 126.5,-69.74 126.5,0.01"></path><g opacity="1" transform="matrix(3,0,0,3,0,0)"><path fill="rgb(248,231,28)" fill-opacity="1" d=" M42.16600036621094,0.004000000189989805 C42.16600036621094,23.243999481201172 23.285999298095703,42.08399963378906 -0.004000000189989805,42.08399963378906 C-23.284000396728516,42.08399963378906 -42.16400146484375,23.243999481201172 -42.16400146484375,0.004000000189989805 C-42.16400146484375,-23.246000289916992 -23.284000396728516,-42.08599853515625 -0.004000000189989805,-42.08599853515625 C23.285999298095703,-42.08599853515625 42.16600036621094,-23.246000289916992 42.16600036621094,0.004000000189989805"></path></g></g></mask><clipPath id="__lottie_element_123"><path d="M0,0 L87,0 L87,81 L0,81z"></path></clipPath><clipPath id="__lottie_element_154"><path d="M0,0 L10,0 L10,25 L0,25z"></path></clipPath><mask id="__lottie_element_161"><g transform="matrix(1,0,0,1,4.925000190734863,12.10200023651123)" opacity="1" style="display: block;"><path fill="rgb(255,0,0)" fill-opacity="1" d=" M-4.925000190734863,9.63700008392334 C-4.925000190734863,9.63700008392334 -3.2149999141693115,0.9369999766349792 -3.2149999141693115,0.3569999933242798 C-3.2149999141693115,-0.22300000488758087 -3.7850000858306885,-4.203000068664551 -2.6449999809265137,-7.413000106811523 C-2.005000114440918,-9.213000297546387 -1.3550000190734863,-9.003000259399414 -1.1649999618530273,-7.413000106811523 C-1.0850000381469727,-6.732999801635742 -1.0950000286102295,-4.563000202178955 -1.0950000286102295,-4.563000202178955 C-1.0950000286102295,-4.563000202178955 -0.38499999046325684,-10.083000183105469 0.7749999761581421,-10.942999839782715 C0.9649999737739563,-11.093000411987305 1.475000023841858,-11.822999954223633 1.9450000524520874,-11.822999954223633 C2.4549999237060547,-11.822999954223633 3.055000066757202,-12.133000373840332 3.625,-11.822999954223633 C4.195000171661377,-11.52299976348877 4.545000076293945,-10.892999649047852 4.764999866485596,-10.36299991607666 C4.914999961853027,-9.993000030517578 4.954999923706055,-9.432999610900879 4.90500020980835,-8.67300033569336 C4.824999809265137,-7.632999897003174 4.824999809265137,-4.9029998779296875 3.8350000381469727,-1.4229999780654907 C3.4549999237060547,-0.08299999684095383 1.9450000524520874,2.677000045776367 1.9450000524520874,2.677000045776367 C1.9450000524520874,2.677000045776367 0.7749999761581421,11.967000007629395 0.7749999761581421,11.967000007629395 C0.7749999761581421,11.967000007629395 -4.925000190734863,10.22700023651123 -4.925000190734863,10.22700023651123 C-4.925000190734863,10.22700023651123 -4.925000190734863,9.63700008392334 -4.925000190734863,9.63700008392334z"></path><g opacity="1" transform="matrix(1,0,0,1,0,0)"><path fill="rgb(255,255,255)" fill-opacity="1" d=" M-4.925000190734863,9.63700008392334 C-4.925000190734863,9.63700008392334 -3.2149999141693115,0.9369999766349792 -3.2149999141693115,0.3569999933242798 C-3.2149999141693115,-0.22300000488758087 -3.7850000858306885,-4.203000068664551 -2.6449999809265137,-7.413000106811523 C-2.005000114440918,-9.213000297546387 -1.3550000190734863,-9.003000259399414 -1.1649999618530273,-7.413000106811523 C-1.0850000381469727,-6.732999801635742 -1.0950000286102295,-4.563000202178955 -1.0950000286102295,-4.563000202178955 C-1.0950000286102295,-4.563000202178955 -0.38499999046325684,-10.083000183105469 0.7749999761581421,-10.942999839782715 C0.9649999737739563,-11.093000411987305 1.475000023841858,-11.822999954223633 1.9450000524520874,-11.822999954223633 C2.4549999237060547,-11.822999954223633 3.055000066757202,-12.133000373840332 3.625,-11.822999954223633 C4.195000171661377,-11.52299976348877 4.545000076293945,-10.892999649047852 4.764999866485596,-10.36299991607666 C4.914999961853027,-9.993000030517578 4.954999923706055,-9.432999610900879 4.90500020980835,-8.67300033569336 C4.824999809265137,-7.632999897003174 4.824999809265137,-4.9029998779296875 3.8350000381469727,-1.4229999780654907 C3.4549999237060547,-0.08299999684095383 1.9450000524520874,2.677000045776367 1.9450000524520874,2.677000045776367 C1.9450000524520874,2.677000045776367 0.7749999761581421,11.967000007629395 0.7749999761581421,11.967000007629395 C0.7749999761581421,11.967000007629395 -4.925000190734863,10.22700023651123 -4.925000190734863,10.22700023651123 C-4.925000190734863,10.22700023651123 -4.925000190734863,9.63700008392334 -4.925000190734863,9.63700008392334z"></path></g></g></mask><linearGradient id="__lottie_element_208" spreadMethod="pad" gradientUnits="userSpaceOnUse" x1="180.05099487304688" y1="-99.35099792480469" x2="-44.03499984741211" y2="158.052001953125"><stop offset="0%" stop-color="rgb(248,249,253)"></stop><stop offset="18%" stop-color="rgb(236,239,245)"></stop><stop offset="35%" stop-color="rgb(225,230,237)"></stop><stop offset="68%" stop-color="rgb(226,229,236)"></stop><stop offset="100%" stop-color="rgb(227,229,234)"></stop></linearGradient><mask id="__lottie_element_204"><g transform="matrix(1,0,0,1,734.552001953125,495)" opacity="1" style="display: block;"><path fill="rgb(255,0,0)" fill-opacity="1" d=" M-471.42,-296.03 C-471.42,-319.88 -452.06,-339.23 -428.22,-339.23 C-428.22,-339.23 428.22,-339.23 428.22,-339.23 C452.07,-339.23 471.42,-319.88 471.42,-296.03 C471.42,-296.03 471.42,296.04 471.42,296.04 C471.42,319.89 452.07,339.24 428.22,339.24 C428.22,339.24 -428.22,339.24 -428.22,339.24 C-452.06,339.24 -471.42,319.89 -471.42,296.04 C-471.42,296.04 -471.42,-296.03 -471.42,-296.03z"></path><g opacity="1" transform="matrix(3,0,0,3,0,0)"><path fill="url(#__lottie_element_211)" fill-opacity="1" d=" M-157.13900756835938,-98.6780014038086 C-157.13900756835938,-106.6253662109375 -150.68637084960938,-113.0780029296875 -142.739013671875,-113.0780029296875 C-142.739013671875,-113.0780029296875 142.7410125732422,-113.0780029296875 142.7410125732422,-113.0780029296875 C150.68836975097656,-113.0780029296875 157.14100646972656,-106.6253662109375 157.14100646972656,-98.6780014038086 C157.14100646972656,-98.6780014038086 157.14100646972656,98.68099975585938 157.14100646972656,98.68099975585938 C157.14100646972656,106.62836456298828 150.68836975097656,113.08100128173828 142.7410125732422,113.08100128173828 C142.7410125732422,113.08100128173828 -142.739013671875,113.08100128173828 -142.739013671875,113.08100128173828 C-150.68637084960938,113.08100128173828 -157.13900756835938,106.62836456298828 -157.13900756835938,98.68099975585938 C-157.13900756835938,98.68099975585938 -157.13900756835938,-98.6780014038086 -157.13900756835938,-98.6780014038086z"></path></g></g></mask><linearGradient id="__lottie_element_211" spreadMethod="pad" gradientUnits="userSpaceOnUse" x1="180.05099487304688" y1="-99.35099792480469" x2="-44.03499984741211" y2="158.052001953125"><stop offset="0%" stop-color="rgb(248,249,253)"></stop><stop offset="18%" stop-color="rgb(236,239,245)"></stop><stop offset="35%" stop-color="rgb(225,230,237)"></stop><stop offset="68%" stop-color="rgb(226,229,236)"></stop><stop offset="100%" stop-color="rgb(227,229,234)"></stop></linearGradient></defs><g clip-path="url(#__lottie_element_4)"><g transform="matrix(1,0,0,1,1020.9149780273438,726.041015625)" opacity="1" style="display: block;"><g opacity="1" transform="matrix(-2.8837850093841553,0.8269120454788208,-0.8269120454788208,-2.8837850093841553,0,0)"><path fill="rgb(248,249,253)" fill-opacity="1" d=" M-15.975000381469727,-106.42500305175781 C-117.3949966430664,-117.29499816894531 -135.8249969482422,-71.07499694824219 -123.55500030517578,-21.55500030517578 C-108.26499938964844,40.154998779296875 -147.35499572753906,68.49500274658203 -110.53500366210938,87.83499908447266 C-72.31500244140625,107.91500091552734 -42.32500076293945,5.295000076293945 50.8849983215332,33.20500183105469 C188.625,74.46499633789062 111.875,-92.73500061035156 -15.975000381469727,-106.42500305175781z"></path></g></g><g transform="matrix(-0.8799999952316284,0,0,-0.8799999952316284,456.9150085449219,405.0409851074219)" opacity="1" style="display: block;"><g opacity="1" transform="matrix(-2.8837850093841553,0.8269120454788208,-0.8269120454788208,-2.8837850093841553,0,0)"><path fill="rgb(248,249,253)" fill-opacity="1" d=" M-15.975000381469727,-106.42500305175781 C-117.3949966430664,-117.29499816894531 -135.8249969482422,-71.07499694824219 -123.55500030517578,-21.55500030517578 C-108.26499938964844,40.154998779296875 -147.35499572753906,68.49500274658203 -110.53500366210938,87.83499908447266 C-72.31500244140625,107.91500091552734 -42.32500076293945,5.295000076293945 50.8849983215332,33.20500183105469 C188.625,74.46499633789062 111.875,-92.73500061035156 -15.975000381469727,-106.42500305175781z"></path></g></g><g style="display: block;" transform="matrix(1,0,0,1,734.552001953125,495)" opacity="1"><g opacity="1" transform="matrix(3,0,0,3,0,0)"><path fill="url(#__lottie_element_208)" fill-opacity="1" d=" M-157.13900756835938,-98.6780014038086 C-157.13900756835938,-106.6253662109375 -150.68637084960938,-113.0780029296875 -142.739013671875,-113.0780029296875 C-142.739013671875,-113.0780029296875 142.7410125732422,-113.0780029296875 142.7410125732422,-113.0780029296875 C150.68836975097656,-113.0780029296875 157.14100646972656,-106.6253662109375 157.14100646972656,-98.6780014038086 C157.14100646972656,-98.6780014038086 157.14100646972656,98.68099975585938 157.14100646972656,98.68099975585938 C157.14100646972656,106.62836456298828 150.68836975097656,113.08100128173828 142.7410125732422,113.08100128173828 C142.7410125732422,113.08100128173828 -142.739013671875,113.08100128173828 -142.739013671875,113.08100128173828 C-150.68637084960938,113.08100128173828 -157.13900756835938,106.62836456298828 -157.13900756835938,98.68099975585938 C-157.13900756835938,98.68099975585938 -157.13900756835938,-98.6780014038086 -157.13900756835938,-98.6780014038086z"></path></g></g><g mask="url(#__lottie_element_204)" style="display: block;"><g transform="matrix(1,0,0,1,691.5,757.0859985351562)" opacity="1"><g opacity="1" transform="matrix(3,0,0,3,0,0)"><path fill="rgb(188,193,198)" fill-opacity="1" d=" M-99.5,-58 C-99.5,-62.415199279785156 -95.91519927978516,-66 -91.5,-66 C-91.5,-66 91.5,-66 91.5,-66 C95.91519927978516,-66 99.5,-62.415199279785156 99.5,-58 C99.5,-58 99.5,58 99.5,58 C99.5,62.415199279785156 95.91519927978516,66 91.5,66 C91.5,66 -91.5,66 -91.5,66 C-95.91519927978516,66 -99.5,62.415199279785156 -99.5,58 C-99.5,58 -99.5,-58 -99.5,-58z"></path></g></g></g><g style="display: block;" transform="matrix(1,0,0,1,730.5,465.4989929199219)" opacity="1"><g opacity="1" transform="matrix(3,0,0,3,0,0)"><path fill="rgb(33,101,72)" fill-opacity="1" d=" M-5.298999786376953,-45.5880012512207 C-5.298999786376953,-45.5880012512207 -102.35900115966797,32.84199905395508 -102.35900115966797,32.84199905395508 C-102.35900115966797,32.84199905395508 -102.35900115966797,47.46200180053711 -102.35900115966797,47.46200180053711 C-102.35900115966797,47.46200180053711 0.0010000000474974513,47.46200180053711 0.0010000000474974513,47.46200180053711 C0.0010000000474974513,47.46200180053711 102.36100006103516,47.46200180053711 102.36100006103516,47.46200180053711 C102.36100006103516,47.46200180053711 102.36100006103516,32.84199905395508 102.36100006103516,32.84199905395508 C102.36100006103516,32.84199905395508 5.301000118255615,-45.5880012512207 5.301000118255615,-45.5880012512207 C2.2109999656677246,-48.077999114990234 -2.2090001106262207,-48.077999114990234 -5.298999786376953,-45.5880012512207z"></path></g></g><g clip-path="url(#__lottie_element_107)" transform="matrix(1,0,0,1,423,321)" opacity="1" style="display: block;"><g transform="matrix(1,0,0,1,313.5,265.02099609375)" opacity="1" style="display: block;"><g opacity="1" transform="matrix(3,0,0,3,0,0)"><path fill="rgb(248,249,253)" fill-opacity="1" d=" M81.48699951171875,88.33999633789062 C81.48699951171875,88.33999633789062 -81.48300170898438,88.33999633789062 -81.48300170898438,88.33999633789062 C-86.14299774169922,88.33999633789062 -89.9229965209961,84.55999755859375 -89.9229965209961,79.9000015258789 C-89.9229965209961,79.9000015258789 -89.9229965209961,-79.9000015258789 -89.9229965209961,-79.9000015258789 C-89.9229965209961,-84.55999755859375 -86.14299774169922,-88.33999633789062 -81.48300170898438,-88.33999633789062 C-81.48300170898438,-88.33999633789062 81.48699951171875,-88.33999633789062 81.48699951171875,-88.33999633789062 C86.14700317382812,-88.33999633789062 89.927001953125,-84.55999755859375 89.927001953125,-79.9000015258789 C89.927001953125,-79.9000015258789 89.927001953125,79.9000015258789 89.927001953125,79.9000015258789 C89.927001953125,84.55999755859375 86.14700317382812,88.33999633789062 81.48699951171875,88.33999633789062z"></path></g></g><g transform="matrix(1,0,0,1,306.49298095703125,134.36199951171875)" opacity="1" style="display: block;"><g opacity="1" transform="matrix(3,0,0,3,0,0)"><path fill="rgb(74,144,226)" fill-opacity="1" d=" M42.16600036621094,0.004000000189989805 C42.16600036621094,23.243999481201172 23.285999298095703,42.08399963378906 -0.004000000189989805,42.08399963378906 C-23.284000396728516,42.08399963378906 -42.16400146484375,23.243999481201172 -42.16400146484375,0.004000000189989805 C-42.16400146484375,-23.246000289916992 -23.284000396728516,-42.08599853515625 -0.004000000189989805,-42.08599853515625 C23.285999298095703,-42.08599853515625 42.16600036621094,-23.246000289916992 42.16600036621094,0.004000000189989805"></path></g></g><g mask="url(#__lottie_element_116)" style="display: block;"><g clip-path="url(#__lottie_element_123)" transform="matrix(3,0,0,3,168,41)" opacity="1"><g transform="matrix(1,0,0,1,50.57699966430664,44.12799835205078)" opacity="1" style="display: block;"><g opacity="1" transform="matrix(1,0,0,1,0,0)"><path fill="rgb(255,255,255)" fill-opacity="1" d=" M0.05000000074505806,3.303999900817871 C4.190000057220459,3.303999900817871 7.349999904632568,3.634000062942505 7.349999904632568,0.8740000128746033 C7.349999904632568,-1.8860000371932983 4.489999771118164,-3.315999984741211 0.3499999940395355,-3.315999984741211 C-3.799999952316284,-3.315999984741211 -7.349999904632568,-2.1059999465942383 -7.349999904632568,0.6539999842643738 C-7.349999904632568,3.4240000247955322 -4.099999904632568,3.303999900817871 0.05000000074505806,3.303999900817871z"></path></g></g><g transform="matrix(1,0,0,1,50.49599838256836,12.116999626159668)" opacity="1" style="display: block;"><g opacity="1" transform="matrix(1,0,0,1,0,0)"><path fill="rgb(54,54,54)" fill-opacity="1" d=" M-7.888000011444092,12.121999740600586 C-3.6480000019073486,12.121999740600586 -0.20800000429153442,8.70199966430664 -0.20800000429153442,4.501999855041504 C-0.20800000429153442,0.2919999957084656 -3.6480000019073486,-3.118000030517578 -7.888000011444092,-3.118000030517578 C-12.128000259399414,-3.118000030517578 -15.567999839782715,0.2919999957084656 -15.567999839782715,4.501999855041504 C-15.567999839782715,8.70199966430664 -12.128000259399414,12.121999740600586 -7.888000011444092,12.121999740600586z M7.890999794006348,11.28600025177002 C12.130999565124512,11.28600025177002 15.571000099182129,7.866000175476074 15.571000099182129,3.6659998893737793 C15.571000099182129,-0.5440000295639038 12.130999565124512,-3.9539999961853027 7.890999794006348,-3.9539999961853027 C3.6510000228881836,-3.9539999961853027 0.210999995470047,-0.5440000295639038 0.210999995470047,3.6659998893737793 C0.210999995470047,7.866000175476074 3.6510000228881836,11.28600025177002 7.890999794006348,11.28600025177002z M7.2170000076293945,5.440999984741211 C11.456999778747559,5.440999984741211 14.897000312805176,2.0209999084472656 14.897000312805176,-2.178999900817871 C14.897000312805176,-6.388999938964844 11.456999778747559,-9.798999786376953 7.2170000076293945,-9.798999786376953 C2.9769999980926514,-9.798999786376953 -0.46299999952316284,-6.388999938964844 -0.46299999952316284,-2.178999900817871 C-0.46299999952316284,2.0209999084472656 2.9769999980926514,5.440999984741211 7.2170000076293945,5.440999984741211z M-7.585999965667725,6.085000038146973 C-3.3459999561309814,6.085000038146973 0.09399999678134918,2.6649999618530273 0.09399999678134918,-1.534999966621399 C0.09399999678134918,-5.744999885559082 -3.3459999561309814,-9.154999732971191 -7.585999965667725,-9.154999732971191 C-11.826000213623047,-9.154999732971191 -15.265999794006348,-5.744999885559082 -15.265999794006348,-1.534999966621399 C-15.265999794006348,2.6649999618530273 -11.826000213623047,6.085000038146973 -7.585999965667725,6.085000038146973z M-0.18400000035762787,3.122999906539917 C4.056000232696533,3.122999906539917 7.495999813079834,-0.296999990940094 7.495999813079834,-4.497000217437744 C7.495999813079834,-8.706999778747559 4.056000232696533,-12.116999626159668 -0.18400000035762787,-12.116999626159668 C-4.423999786376953,-12.116999626159668 -7.863999843597412,-8.706999778747559 -7.863999843597412,-4.497000217437744 C-7.863999843597412,-0.296999990940094 -4.423999786376953,3.122999906539917 -0.18400000035762787,3.122999906539917z"></path></g></g><g transform="matrix(1,0,0,1,50.57899856567383,39.77799987792969)" opacity="1" style="display: block;"><g opacity="1" transform="matrix(1,0,0,1,0,0)"><path fill="rgb(255,255,255)" fill-opacity="1" d=" M-3.2019999027252197,8.621000289916992 C-3.2019999027252197,8.621000289916992 -4.552000045776367,7.960999965667725 -4.552000045776367,7.960999965667725 C-5.492000102996826,7.500999927520752 -6.211999893188477,6.681000232696533 -6.541999816894531,5.690999984741211 C-6.861999988555908,4.690999984741211 -6.771999835968018,3.6110000610351562 -6.2820000648498535,2.690999984741211 C-4.9019999504089355,0.13099999725818634 -4.9019999504089355,-2.5290000438690186 -5.311999797821045,-4.689000129699707 C-5.521999835968018,-5.818999767303467 -5.2220001220703125,-6.988999843597412 -4.4720001220703125,-7.86899995803833 C-3.7320001125335693,-8.74899959564209 -2.631999969482422,-9.258999824523926 -1.472000002861023,-9.258999824523926 C-1.472000002861023,-9.258999824523926 -1.472000002861023,-9.258999824523926 -1.472000002861023,-9.258999824523926 C0.6779999732971191,-9.258999824523926 2.427999973297119,-7.5289998054504395 2.427999973297119,-5.388999938964844 C2.427999973297119,-5.388999938964844 2.427999973297119,5.140999794006348 2.427999973297119,5.140999794006348 C2.427999973297119,6.480999946594238 1.7280000448226929,7.7210001945495605 0.5879999995231628,8.430999755859375 C-0.5619999766349792,9.140999794006348 -1.9919999837875366,9.211000442504883 -3.2019999027252197,8.621000289916992z M3.196000099182129,8.859999656677246 C1.9859999418258667,9.449999809265137 0.5559999942779541,9.380000114440918 -0.5839999914169312,8.670000076293945 C-1.7239999771118164,7.96999979019165 -2.4240000247955322,6.730000019073486 -2.4240000247955322,5.389999866485596 C-2.4240000247955322,5.389999866485596 -2.4240000247955322,-5.139999866485596 -2.4240000247955322,-5.139999866485596 C-2.4240000247955322,-6.170000076293945 -2.0139999389648438,-7.159999847412109 -1.284000039100647,-7.880000114440918 C-0.5540000200271606,-8.609999656677246 0.4359999895095825,-9.020000457763672 1.4759999513626099,-9.020000457763672 C1.4759999513626099,-9.020000457763672 1.4759999513626099,-9.020000457763672 1.4759999513626099,-9.020000457763672 C2.635999917984009,-9.020000457763672 3.7360000610351562,-8.510000228881836 4.47599983215332,-7.630000114440918 C5.216000080108643,-6.75 5.526000022888184,-5.579999923706055 5.315999984741211,-4.449999809265137 C4.895999908447266,-2.2899999618530273 4.906000137329102,0.3700000047683716 6.285999774932861,2.930000066757202 C6.776000022888184,3.8499999046325684 6.866000175476074,4.929999828338623 6.535999774932861,5.929999828338623 C6.216000080108643,6.920000076293945 5.495999813079834,7.739999771118164 4.546000003814697,8.199999809265137 C4.546000003814697,8.199999809265137 3.196000099182129,8.859999656677246 3.196000099182129,8.859999656677246z"></path></g></g><g transform="matrix(1,0,0,1,39.46699905395508,27.27400016784668)" opacity="1" style="display: block;"><g opacity="1" transform="matrix(1,0,0,1,0,0)"><path fill="rgb(255,255,255)" fill-opacity="1" d=" M0.0020000000949949026,3.450000047683716 C1.9220000505447388,3.450000047683716 3.4820001125335693,1.909999966621399 3.4820001125335693,0 C3.4820001125335693,-1.909999966621399 1.9220000505447388,-3.450000047683716 0.0020000000949949026,-3.450000047683716 C-1.9179999828338623,-3.450000047683716 -3.4779999256134033,-1.909999966621399 -3.4779999256134033,0 C-3.4779999256134033,1.909999966621399 -1.9179999828338623,3.450000047683716 0.0020000000949949026,3.450000047683716z"></path></g></g><g transform="matrix(1,0,0,1,61.21500015258789,27.179000854492188)" opacity="1" style="display: block;"><g opacity="1" transform="matrix(1,0,0,1,0,0)"><path fill="rgb(255,255,255)" fill-opacity="1" d=" M0.0020000000949949026,3.450000047683716 C1.9220000505447388,3.450000047683716 3.4820001125335693,1.909999966621399 3.4820001125335693,0 C3.4820001125335693,-1.909999966621399 1.9220000505447388,-3.450000047683716 0.0020000000949949026,-3.450000047683716 C-1.9179999828338623,-3.450000047683716 -3.4779999256134033,-1.909999966621399 -3.4779999256134033,0 C-3.4779999256134033,1.909999966621399 -1.9179999828338623,3.450000047683716 0.0020000000949949026,3.450000047683716z"></path></g></g><g transform="matrix(1,0,0,1,50.48699951171875,25.260000228881836)" opacity="1" style="display: block;"><g opacity="1" transform="matrix(1,0,0,1,0,0)"><path fill="rgb(255,255,255)" fill-opacity="1" d=" M13.619999885559082,-2.38700008392334 C13.619999885559082,2.812999963760376 11.239999771118164,9.602999687194824 6.900000095367432,11.86299991607666 C5.010000228881836,12.843000411987305 3.700000047683716,15.833000183105469 -0.07999999821186066,15.732999801635742 C-4,15.642999649047852 -5.010000228881836,12.732999801635742 -6.940000057220459,11.692999839782715 C-11.1899995803833,9.402999877929688 -13.619999885559082,2.743000030517578 -13.619999885559082,-2.38700008392334 C-13.529999732971191,-9.786999702453613 -7.460000038146973,-15.737000465393066 0,-15.737000465393066 C7.460000038146973,-15.737000465393066 13.529999732971191,-9.786999702453613 13.619999885559082,-2.38700008392334 C13.619999885559082,-2.38700008392334 13.619999885559082,-2.38700008392334 13.619999885559082,-2.38700008392334z"></path></g></g><g transform="matrix(1,0,0,1,50.39899826049805,15.616000175476074)" opacity="1" style="display: block;"><g opacity="1" transform="matrix(1,0,0,1,0,0)"><path fill="rgb(35,35,35)" fill-opacity="1" d=" M0,-8.58899974822998 C-17.649999618530273,-9.229000091552734 -13.550000190734863,8.611000061035156 -13.550000190734863,8.611000061035156 C-12.760000228881836,6.511000156402588 -12.100000381469727,4.341000080108643 -11.239999771118164,2.2809998989105225 C-10.850000381469727,1.3209999799728394 -10.350000381469727,0.42100000381469727 -9.729999542236328,-0.39899998903274536 C-9.199999809265137,-1.069000005722046 -8.6899995803833,-1.909000039100647 -7.829999923706055,-2.2090001106262207 C-6.929999828338623,-2.5190000534057617 -5.980000019073486,-2.0989999771118164 -5.079999923706055,-2.0290000438690186 C-4.71999979019165,-2.009000062942505 -0.5799999833106995,-1.7990000247955322 0,-2.0190000534057617 C0.5899999737739563,-1.7990000247955322 4.71999979019165,-2.009000062942505 5.079999923706055,-2.0290000438690186 C5.989999771118164,-2.0989999771118164 6.940000057220459,-2.5190000534057617 7.840000152587891,-2.2090001106262207 C8.6899995803833,-1.9190000295639038 9.210000038146973,-1.069000005722046 9.729999542236328,-0.39899998903274536 C10.350000381469727,0.42100000381469727 10.859999656677246,1.3209999799728394 11.239999771118164,2.2809998989105225 C12.109999656677246,4.341000080108643 12.770000457763672,6.511000156402588 13.550000190734863,8.611000061035156 C13.550000190734863,8.611000061035156 17.649999618530273,-9.229000091552734 0,-8.58899974822998z"></path></g></g><g transform="matrix(1,0,0,1,51.375999450683594,59.98099899291992)" opacity="1" style="display: block;"><g opacity="1" transform="matrix(1,0,0,1,0,0)"><path fill="rgb(242,100,35)" fill-opacity="1" d=" M-7.171999931335449,-15.842000007629395 C-5.952000141143799,-13.692000389099121 0.12800000607967377,-13.052000045776367 -0.871999979019165,-13.052000045776367 C-0.871999979019165,-13.052000045776367 -0.871999979019165,17.17799949645996 -0.871999979019165,17.17799949645996 C-0.871999979019165,17.17799949645996 -18.18199920654297,15.977999687194824 -18.18199920654297,15.977999687194824 C-18.922000885009766,12.187999725341797 -19.48200035095215,-5.6620001792907715 -16.371999740600586,-7.98199987411499 C-15.772000312805176,-8.45199966430664 -14.571999549865723,-12.022000312805176 -13.371999740600586,-13.982000350952148 C-12.781999588012695,-14.961999893188477 -12.241999626159668,-14.741999626159668 -11.67199993133545,-15.121999740600586 C-8.232000350952148,-17.422000885009766 -7.622000217437744,-16.871999740600586 -7.622000217437744,-16.871999740600586 C-7.622000217437744,-16.871999740600586 -7.171999931335449,-15.842000007629395 -7.171999931335449,-15.842000007629395z M5.552999973297119,-15.845999717712402 C5.552999973297119,-15.845999717712402 6.0229997634887695,-16.875999450683594 6.0229997634887695,-16.875999450683594 C6.0229997634887695,-16.875999450683594 9.362000465393066,-15.13599967956543 14.70199966430664,-11.005999565124512 C17.812000274658203,-8.685999870300293 19.312999725341797,8.194000244140625 18.572999954223633,11.984000205993652 C18.572999954223633,11.984000205993652 -0.9380000233650208,12.934000015258789 -0.9380000233650208,12.934000015258789 C-0.9380000233650208,12.934000015258789 -0.9380000233650208,-13.055999755859375 -0.9380000233650208,-13.055999755859375 C-0.9380000233650208,-13.055999755859375 4.333000183105469,-13.696000099182129 5.552999973297119,-15.845999717712402z"></path></g><g opacity="1" transform="matrix(1,0,0,1,0,0)"><path fill="rgb(242,100,35)" fill-opacity="1" d=" M33.624000549316406,9.394000053405762"></path><path stroke-linecap="butt" stroke-linejoin="miter" fill-opacity="0" stroke-miterlimit="4" stroke="rgb(255,255,255)" stroke-opacity="1" stroke-width="2" d=" M33.624000549316406,9.394000053405762"></path></g></g><g transform="matrix(1,0,0,1,36.50600051879883,67.70099639892578)" opacity="0.31" style="display: block;"><g opacity="1" transform="matrix(1,0,0,1,0,0)"><path fill="rgb(153,64,22)" fill-opacity="1" d=" M3.49399995803833,-5.505000114440918 C3.49399995803833,-5.505000114440918 3.6540000438690186,5.505000114440918 1.49399995803833,5.505000114440918 C-0.6660000085830688,5.505000114440918 -3.50600004196167,4.295000076293945 -3.50600004196167,4.295000076293945 C-3.50600004196167,4.295000076293945 3.49399995803833,-5.505000114440918 3.49399995803833,-5.505000114440918z"></path></g></g><g clip-path="url(#__lottie_element_154)" transform="matrix(-0.9920077323913574,0.12617702782154083,0.12617702782154083,0.9920077323913574,20.805702209472656,33.99710464477539)" opacity="1" style="display: block;"><g transform="matrix(1,0,0,1,4.925000190734863,12.10200023651123)" opacity="1" style="display: block;"><g opacity="1" transform="matrix(1,0,0,1,0,0)"><path fill="rgb(255,255,255)" fill-opacity="1" d=" M-4.925000190734863,9.63700008392334 C-4.925000190734863,9.63700008392334 -3.2149999141693115,0.9369999766349792 -3.2149999141693115,0.3569999933242798 C-3.2149999141693115,-0.22300000488758087 -3.7850000858306885,-4.203000068664551 -2.6449999809265137,-7.413000106811523 C-2.005000114440918,-9.213000297546387 -1.3550000190734863,-9.003000259399414 -1.1649999618530273,-7.413000106811523 C-1.0850000381469727,-6.732999801635742 -1.0950000286102295,-4.563000202178955 -1.0950000286102295,-4.563000202178955 C-1.0950000286102295,-4.563000202178955 -0.38499999046325684,-10.083000183105469 0.7749999761581421,-10.942999839782715 C0.9649999737739563,-11.093000411987305 1.475000023841858,-11.822999954223633 1.9450000524520874,-11.822999954223633 C2.4549999237060547,-11.822999954223633 3.055000066757202,-12.133000373840332 3.625,-11.822999954223633 C4.195000171661377,-11.52299976348877 4.545000076293945,-10.892999649047852 4.764999866485596,-10.36299991607666 C4.914999961853027,-9.993000030517578 4.954999923706055,-9.432999610900879 4.90500020980835,-8.67300033569336 C4.824999809265137,-7.632999897003174 4.824999809265137,-4.9029998779296875 3.8350000381469727,-1.4229999780654907 C3.4549999237060547,-0.08299999684095383 1.9450000524520874,2.677000045776367 1.9450000524520874,2.677000045776367 C1.9450000524520874,2.677000045776367 0.7749999761581421,11.967000007629395 0.7749999761581421,11.967000007629395 C0.7749999761581421,11.967000007629395 -4.925000190734863,10.22700023651123 -4.925000190734863,10.22700023651123 C-4.925000190734863,10.22700023651123 -4.925000190734863,9.63700008392334 -4.925000190734863,9.63700008392334z"></path></g></g><g mask="url(#__lottie_element_161)" style="display: block;"><g transform="matrix(1,0,0,1,3.134999990463257,21.759000778198242)" opacity="1"><g opacity="1" transform="matrix(1,0,0,1,0,0)"><path fill="rgb(255,255,255)" fill-opacity="1" d=" M-3.134999990463257,0.289000004529953 C-3.134999990463257,0.289000004529953 -3.134999990463257,-1.4509999752044678 -3.134999990463257,-1.4509999752044678 C-3.134999990463257,-1.4509999752044678 -0.9549999833106995,-0.48100000619888306 -0.0949999988079071,-0.29100000858306885 C0.7649999856948853,-0.10100000351667404 3.134999990463257,-0.29100000858306885 3.134999990463257,-0.29100000858306885 C3.134999990463257,-0.29100000858306885 2.565000057220459,1.4490000009536743 2.565000057220459,1.4490000009536743 C2.565000057220459,1.4490000009536743 -3.134999990463257,0.289000004529953 -3.134999990463257,0.289000004529953z"></path></g></g></g><g transform="matrix(1,0,0,1,6.060999870300293,5.921000003814697)" opacity="1" style="display: block;"><g opacity="1" transform="matrix(1,0,0,1,0,0)"><path fill="rgb(255,255,255)" fill-opacity="1" d="M0 0"></path></g></g></g><g transform="matrix(-0.9920077323913574,0.12617702782154083,0.12617702782154083,0.9920077323913574,23.644775390625,68.13471984863281)" opacity="1" style="display: block;"><g opacity="1" transform="matrix(1,0,0,1,0,0)"><path fill="rgb(242,100,35)" fill-opacity="1" d=" M-3.809999942779541,-7.533999919891357 C-3.5799999237060547,-8.543999671936035 -2.799999952316284,-12.753999710083008 -2.799999952316284,-12.753999710083008 C-2.799999952316284,-12.753999710083008 5.380000114440918,-11.593999862670898 5.380000114440918,-11.593999862670898 C5.380000114440918,-11.593999862670898 4.300000190734863,5.495999813079834 2.5,9.295999526977539 C1.4299999475479126,11.555999755859375 -0.4000000059604645,12.755999565124512 -1.9500000476837158,12.755999565124512 C-8.170000076293945,12.755999565124512 -4.079999923706055,-6.354000091552734 -3.809999942779541,-7.533999919891357z"></path></g></g><g transform="matrix(-1,0,0,1,32.86800003051758,63.48899841308594)" opacity="1" style="display: block;"><g opacity="1" transform="matrix(1,0,0,1,0,0)"><path fill="rgb(242,100,35)" fill-opacity="1" d=" M-5.13100004196167,-17.48900032043457 C-5.13100004196167,-17.48900032043457 0.039000000804662704,-14.819000244140625 3.3589999675750732,-3.9590001106262207 C4.548999786376953,-0.0689999982714653 3.5190000534057617,-1.61899995803833 3.7890000343322754,-2.7990000247955322 C4.019000053405762,-3.809000015258789 7.198999881744385,17.490999221801758 5.64900016784668,17.490999221801758 C-0.5709999799728394,17.490999221801758 -6.071000099182129,0.6809999942779541 -6.071000099182129,0.6809999942779541 C-6.071000099182129,0.6809999942779541 -5.13100004196167,-17.48900032043457 -5.13100004196167,-17.48900032043457z"></path></g></g><g transform="matrix(1,0,0,1,62.85200119018555,30.04199981689453)" opacity="1" style="display: block;"><g opacity="1" transform="matrix(1,0,0,1,0,0)"><path fill="rgb(181,184,184)" fill-opacity="1" d=" M0.004000000189989805,1.1430000066757202 C0.6340000033378601,1.1430000066757202 1.1540000438690186,0.6330000162124634 1.1540000438690186,0.003000000026077032 C1.1540000438690186,-0.6370000243186951 0.6340000033378601,-1.1469999551773071 0.004000000189989805,-1.1469999551773071 C-0.6359999775886536,-1.1469999551773071 -1.156000018119812,-0.6370000243186951 -1.156000018119812,0.003000000026077032 C-1.156000018119812,0.6330000162124634 -0.6359999775886536,1.1430000066757202 0.004000000189989805,1.1430000066757202z"></path></g></g><g transform="matrix(1,0,0,1,38.308998107910156,30.35300064086914)" opacity="1" style="display: block;"><g opacity="1" transform="matrix(1,0,0,1,0,0)"><path fill="rgb(181,184,184)" fill-opacity="1" d=" M0.004000000189989805,1.1430000066757202 C0.6340000033378601,1.1430000066757202 1.1540000438690186,0.6330000162124634 1.1540000438690186,0.003000000026077032 C1.1540000438690186,-0.6370000243186951 0.6340000033378601,-1.1469999551773071 0.004000000189989805,-1.1469999551773071 C-0.6359999775886536,-1.1469999551773071 -1.156000018119812,-0.6370000243186951 -1.156000018119812,0.003000000026077032 C-1.156000018119812,0.6330000162124634 -0.6359999775886536,1.1430000066757202 0.004000000189989805,1.1430000066757202z"></path></g></g><g transform="matrix(1,0,0,1,51,33.5)" opacity="1" style="display: block;"><g opacity="1" transform="matrix(1,0,0,1,0,0)"><path fill="rgb(139,87,42)" fill-opacity="1" d=" M0,1.5 C2.2100000381469727,1.5 4,-1.5 4,-1.5 C4,-1.5 -4,-1.5 -4,-1.5 C-4,-1.5 -2.2100000381469727,1.5 0,1.5z"></path></g></g><g transform="matrix(1,0,0,1,46,22.5)" opacity="1" style="display: block;"><g opacity="1" transform="matrix(1,0,0,1,0,0)"><path stroke-linecap="round" stroke-linejoin="miter" fill-opacity="0" stroke-miterlimit="4" stroke="rgb(139,87,42)" stroke-opacity="1" stroke-width="1" d=" M-2,0.38999998569488525 C-2,0.38999998569488525 0,-1.159999966621399 2,0.38999998569488525"></path></g></g><g transform="matrix(1,0,0,1,54.99300003051758,22.5)" opacity="1" style="display: block;"><g opacity="1" transform="matrix(1,0,0,1,0,0)"><path stroke-linecap="round" stroke-linejoin="miter" fill-opacity="0" stroke-miterlimit="4" stroke="rgb(139,87,42)" stroke-opacity="1" stroke-width="1" d=" M-2,0.38999998569488525 C-2,0.38999998569488525 0,-1.159999966621399 2,0.38999998569488525"></path></g></g><g transform="matrix(1,0,0,1,62.29399871826172,66)" opacity="0.31" style="display: block;"><g opacity="1" transform="matrix(1,0,0,1,0,0)"><path fill="rgb(153,64,22)" fill-opacity="1" d=" M-0.9139999747276306,-6 C-0.9139999747276306,-6 -1.5440000295639038,6 -1.5440000295639038,6 C-1.5440000295639038,6 1.5460000038146973,4 1.5460000038146973,4 C1.5460000038146973,4 -0.9139999747276306,-6 -0.9139999747276306,-6z"></path></g></g></g></g><g transform="matrix(1,0,0,1,307.02301025390625,310.5719909667969)" opacity="1" style="display: block;"><g opacity="1" transform="matrix(3,0,0,3,0,0)"><path fill="rgb(242,100,35)" fill-opacity="1" d=" M30.138999938964844,11.312000274658203 C29.429000854492188,11.312000274658203 28.89900016784668,11.121999740600586 28.538999557495117,10.741999626159668 C28.179000854492188,10.35200023651123 27.999000549316406,9.85200023651123 27.999000549316406,9.232000350952148 C27.999000549316406,8.51200008392334 28.198999404907227,7.932000160217285 28.608999252319336,7.501999855041504 C29.018999099731445,7.072000026702881 29.589000701904297,6.8520002365112305 30.32900047302246,6.8520002365112305 C31.02899932861328,6.8520002365112305 31.55900001525879,7.021999835968018 31.91900062561035,7.372000217437744 C32.27899932861328,7.711999893188477 32.45899963378906,8.222000122070312 32.45899963378906,8.892000198364258 C32.45899963378906,9.631999969482422 32.25899887084961,10.211999893188477 31.839000701904297,10.652000427246094 C31.41900062561035,11.092000007629395 30.858999252319336,11.312000274658203 30.138999938964844,11.312000274658203z M31.042999267578125,5.576000213623047 C30.722999572753906,5.576000213623047 30.46299934387207,5.50600004196167 30.253000259399414,5.366000175476074 C30.042999267578125,5.216000080108643 29.94300079345703,4.995999813079834 29.94300079345703,4.696000099182129 C29.94300079345703,4.696000099182129 29.96299934387207,4.495999813079834 29.96299934387207,4.495999813079834 C30.243000030517578,2.7060000896453857 30.60300064086914,0.6660000085830688 31.072999954223633,-1.6239999532699585 C31.533000946044922,-3.9040000438690186 31.96299934387207,-5.883999824523926 32.362998962402344,-7.544000148773193 C32.62300109863281,-8.574000358581543 33.323001861572266,-9.083999633789062 34.452999114990234,-9.083999633789062 C35.483001708984375,-9.083999633789062 35.99300003051758,-8.753999710083008 35.99300003051758,-8.104000091552734 C35.99300003051758,-7.953999996185303 35.9630012512207,-7.794000148773193 35.92300033569336,-7.624000072479248 C35.50299835205078,-5.923999786376953 34.952999114990234,-3.874000072479248 34.26300048828125,-1.4639999866485596 C33.573001861572266,0.9459999799728394 32.92300033569336,3.0360000133514404 32.292999267578125,4.815999984741211 C32.12300109863281,5.326000213623047 31.702999114990234,5.576000213623047 31.042999267578125,5.576000213623047z M21.249000549316406,8.720000267028809 C21.788999557495117,8.720000267028809 22.249000549316406,8.430000305175781 22.628999710083008,7.840000152587891 C23.009000778198242,7.239999771118164 23.18899917602539,6.380000114440918 23.18899917602539,5.239999771118164 C23.18899917602539,4.360000133514404 23.02899932861328,3.700000047683716 22.708999633789062,3.25 C22.388999938964844,2.799999952316284 22.009000778198242,2.5799999237060547 21.55900001525879,2.5799999237060547 C20.98900032043457,2.5799999237060547 20.509000778198242,2.869999885559082 20.128999710083008,3.4600000381469727 C19.759000778198242,4.039999961853027 19.569000244140625,4.909999847412109 19.569000244140625,6.059999942779541 C19.569000244140625,6.96999979019165 19.729000091552734,7.639999866485596 20.048999786376953,8.079999923706055 C20.368999481201172,8.510000228881836 20.768999099731445,8.720000267028809 21.249000549316406,8.720000267028809z M20.98900032043457,11.317999839782715 C20.038999557495117,11.317999839782715 19.23900032043457,11.07800006866455 18.569000244140625,10.607999801635742 C17.909000396728516,10.137999534606934 17.409000396728516,9.517999649047852 17.069000244140625,8.748000144958496 C16.73900032043457,7.978000164031982 16.569000244140625,7.1579999923706055 16.569000244140625,6.2779998779296875 C16.569000244140625,5.058000087738037 16.798999786376953,3.9779999256134033 17.249000549316406,3.0280001163482666 C17.708999633789062,2.068000078201294 18.32900047302246,1.3279999494552612 19.108999252319336,0.7879999876022339 C19.89900016784668,0.257999986410141 20.77899932861328,-0.012000000104308128 21.749000549316406,-0.012000000104308128 C22.698999404907227,-0.012000000104308128 23.509000778198242,0.2280000001192093 24.179000854492188,0.6980000138282776 C24.849000930786133,1.1679999828338623 25.349000930786133,1.7879999876022339 25.68899917602539,2.558000087738037 C26.02899932861328,3.328000068664551 26.18899917602539,4.1479997634887695 26.18899917602539,5.0279998779296875 C26.18899917602539,6.248000144958496 25.958999633789062,7.328000068664551 25.499000549316406,8.277999877929688 C25.02899932861328,9.227999687194824 24.409000396728516,9.977999687194824 23.608999252319336,10.508000373840332 C22.819000244140625,11.04800033569336 21.948999404907227,11.317999839782715 20.98900032043457,11.317999839782715z M14.692999839782715,-8.98799991607666 C14.322999954223633,-8.98799991607666 13.902999877929688,-8.32800006866455 13.442999839782715,-6.998000144958496 C12.982999801635742,-5.668000221252441 12.572999954223633,-4.01800012588501 12.222999572753906,-2.0480000972747803 C11.86299991607666,-0.08799999952316284 11.67300033569336,1.8020000457763672 11.642999649047852,3.611999988555908 C12.782999992370605,1.7419999837875366 13.682999610900879,-0.1379999965429306 14.352999687194824,-2.0179998874664307 C15.02299976348877,-3.8980000019073486 15.36299991607666,-5.607999801635742 15.36299991607666,-7.168000221252441 C15.36299991607666,-8.378000259399414 15.142999649047852,-8.98799991607666 14.692999839782715,-8.98799991607666z M15.614999771118164,10.496000289916992 C14.805000305175781,11.045999526977539 13.895000457763672,11.315999984741211 12.864999771118164,11.315999984741211 C11.454999923706055,11.315999984741211 10.414999961853027,10.675999641418457 9.734999656677246,9.395999908447266 C9.055000305175781,8.116000175476074 8.71500015258789,6.455999851226807 8.71500015258789,4.426000118255615 C8.71500015258789,2.4760000705718994 8.96500015258789,0.25600001215934753 9.475000381469727,-2.24399995803833 C9.975000381469727,-4.74399995803833 10.71500015258789,-6.883999824523926 11.704999923706055,-8.673999786376953 C12.6850004196167,-10.46399974822998 13.854999542236328,-11.36400032043457 15.21500015258789,-11.36400032043457 C15.984999656677246,-11.36400032043457 16.594999313354492,-11.003999710083008 17.03499984741211,-10.293999671936035 C17.475000381469727,-9.583999633789062 17.69499969482422,-8.564000129699707 17.69499969482422,-7.234000205993652 C17.69499969482422,-5.334000110626221 17.165000915527344,-3.124000072479248 16.104999542236328,-0.6140000224113464 C15.055000305175781,1.8960000276565552 13.614999771118164,4.386000156402588 11.8149995803833,6.855999946594238 C11.925000190734863,7.50600004196167 12.104999542236328,7.97599983215332 12.364999771118164,8.255999565124512 C12.614999771118164,8.53600025177002 12.954999923706055,8.675999641418457 13.375,8.675999641418457 C14.024999618530273,8.675999641418457 14.604999542236328,8.486000061035156 15.095000267028809,8.116000175476074 C15.595000267028809,7.736000061035156 15.805000305175781,7.835999965667725 16.565000534057617,6.926000118255615 C16.764999389648438,6.696000099182129 16.424999237060547,9.956000328063965 15.614999771118164,10.496000289916992z M6.310999870300293,-8.98799991607666 C5.940999984741211,-8.98799991607666 5.520999908447266,-8.32800006866455 5.060999870300293,-6.998000144958496 C4.60099983215332,-5.668000221252441 4.190999984741211,-4.01800012588501 3.8410000801086426,-2.0480000972747803 C3.4809999465942383,-0.08799999952316284 3.2909998893737793,1.8020000457763672 3.260999917984009,3.611999988555908 C4.401000022888184,1.7419999837875366 5.301000118255615,-0.1379999965429306 5.9710001945495605,-2.0179998874664307 C6.640999794006348,-3.8980000019073486 6.980999946594238,-5.607999801635742 6.980999946594238,-7.168000221252441 C6.980999946594238,-8.378000259399414 6.761000156402588,-8.98799991607666 6.310999870300293,-8.98799991607666z M8.713000297546387,9.22599983215332 C8.02299976348877,10.076000213623047 8.043000221252441,9.956000328063965 7.232999801635742,10.496000289916992 C6.422999858856201,11.045999526977539 5.513000011444092,11.315999984741211 4.482999801635742,11.315999984741211 C3.072999954223633,11.315999984741211 2.0329999923706055,10.675999641418457 1.3530000448226929,9.395999908447266 C0.6729999780654907,8.116000175476074 0.3330000042915344,6.455999851226807 0.3330000042915344,4.426000118255615 C0.3330000042915344,2.4760000705718994 0.5830000042915344,0.25600001215934753 1.093000054359436,-2.24399995803833 C1.593000054359436,-4.74399995803833 2.3329999446868896,-6.883999824523926 3.322999954223633,-8.673999786376953 C4.302999973297119,-10.46399974822998 5.4730000495910645,-11.36400032043457 6.833000183105469,-11.36400032043457 C7.603000164031982,-11.36400032043457 8.213000297546387,-11.003999710083008 8.652999877929688,-10.293999671936035 C9.093000411987305,-9.583999633789062 9.312999725341797,-8.564000129699707 9.312999725341797,-7.234000205993652 C9.312999725341797,-5.334000110626221 8.782999992370605,-3.124000072479248 7.7230000495910645,-0.6140000224113464 C6.672999858856201,1.8960000276565552 5.232999801635742,4.386000156402588 3.433000087738037,6.855999946594238 C3.5429999828338623,7.50600004196167 3.7230000495910645,7.97599983215332 3.9830000400543213,8.255999565124512 C4.232999801635742,8.53600025177002 4.572999954223633,8.675999641418457 4.993000030517578,8.675999641418457 C5.64300012588501,8.675999641418457 6.2230000495910645,8.486000061035156 6.7129998207092285,8.116000175476074 C7.2129998207092285,7.736000061035156 7.8429999351501465,7.0960001945495605 8.61299991607666,6.176000118255615 C8.803000450134277,5.955999851226807 9.02299976348877,8.87600040435791 8.713000297546387,9.22599983215332z M-5.171000003814697,2.364000082015991 C-5.761000156402588,2.364000082015991 -6.261000156402588,2.7039999961853027 -6.671000003814697,3.3940000534057617 C-7.080999851226807,4.084000110626221 -7.281000137329102,4.914000034332275 -7.281000137329102,5.894000053405762 C-7.281000137329102,5.894000053405762 -7.281000137329102,5.943999767303467 -7.281000137329102,5.943999767303467 C-6.341000080108643,5.714000225067139 -5.591000080108643,5.383999824523926 -5.051000118255615,4.934000015258789 C-4.500999927520752,4.484000205993652 -4.230999946594238,3.9639999866485596 -4.230999946594238,3.374000072479248 C-4.230999946594238,3.063999891281128 -4.321000099182129,2.8239998817443848 -4.480999946594238,2.6440000534057617 C-4.651000022888184,2.4539999961853027 -4.88100004196167,2.364000082015991 -5.171000003814697,2.364000082015991z M0.6549999713897705,8.67199993133545 C0.06499999761581421,9.392000198364258 -0.33500000834465027,9.791999816894531 -1.4149999618530273,10.402000427246094 C-2.494999885559082,11.01200008392334 -3.6449999809265137,11.312000274658203 -4.885000228881836,11.312000274658203 C-6.565000057220459,11.312000274658203 -7.864999771118164,10.862000465393066 -8.795000076293945,9.95199966430664 C-9.725000381469727,9.031999588012695 -10.1850004196167,7.791999816894531 -10.1850004196167,6.202000141143799 C-10.1850004196167,5.1020002365112305 -9.954999923706055,4.072000026702881 -9.484999656677246,3.121999979019165 C-9.024999618530273,2.171999931335449 -8.385000228881836,1.4119999408721924 -7.554999828338623,0.8519999980926514 C-6.735000133514404,0.2919999957084656 -5.804999828338623,0.012000000104308128 -4.764999866485596,0.012000000104308128 C-3.8350000381469727,0.012000000104308128 -3.0850000381469727,0.2919999957084656 -2.5250000953674316,0.8420000076293945 C-1.965000033378601,1.3919999599456787 -1.684999942779541,2.1419999599456787 -1.684999942779541,3.0820000171661377 C-1.684999942779541,4.191999912261963 -2.0850000381469727,5.131999969482422 -2.875,5.932000160217285 C-3.6649999618530273,6.7220001220703125 -5.005000114440918,7.3520002365112305 -6.894999980926514,7.811999797821045 C-6.494999885559082,8.552000045776367 -5.735000133514404,8.911999702453613 -4.614999771118164,8.911999702453613 C-3.8949999809265137,8.911999702453613 -3.075000047683716,8.661999702453613 -2.1549999713897705,8.161999702453613 C-1.2350000143051147,7.6519999504089355 -0.4449999928474426,6.992000102996826 0.23499999940395355,6.182000160217285 C0.33500000834465027,6.052000045776367 0.36500000953674316,6.811999797821045 0.48500001430511475,7.501999855041504 C0.574999988079071,8.052000045776367 0.7950000166893005,8.522000312805176 0.6549999713897705,8.67199993133545z M-15.472999572753906,-7.763999938964844 C-15.822999954223633,-7.763999938964844 -16.19300079345703,-7.443999767303467 -16.58300018310547,-6.803999900817871 C-16.982999801635742,-6.164000034332275 -17.35300064086914,-5.294000148773193 -17.702999114990234,-4.184000015258789 C-18.05299949645996,-3.0840001106262207 -18.33300018310547,-1.8739999532699585 -18.542999267578125,-0.5640000104904175 C-17.26300048828125,-1.093999981880188 -16.322999954223633,-1.843999981880188 -15.713000297546387,-2.8239998817443848 C-15.102999687194824,-3.7939999103546143 -14.803000450134277,-5.053999900817871 -14.803000450134277,-6.584000110626221 C-14.803000450134277,-6.953999996185303 -14.86299991607666,-7.24399995803833 -14.993000030517578,-7.453999996185303 C-15.123000144958496,-7.664000034332275 -15.282999992370605,-7.763999938964844 -15.472999572753906,-7.763999938964844z M-12.230999946594238,5.8480000495910645 C-12.020999908447266,5.8480000495910645 -11.861000061035156,5.938000202178955 -11.741000175476074,6.127999782562256 C-11.621000289916992,6.328000068664551 -11.560999870300293,6.5879998207092285 -11.560999870300293,6.927999973297119 C-11.560999870300293,7.547999858856201 -11.711000442504883,8.04800033569336 -12.01099967956543,8.407999992370605 C-13.60099983215332,10.347999572753906 -15.291000366210938,11.317999839782715 -17.08099937438965,11.317999839782715 C-18.631000518798828,11.317999839782715 -19.871000289916992,10.718000411987305 -20.801000595092773,9.517999649047852 C-21.731000900268555,8.317999839782715 -22.19099998474121,6.5980000495910645 -22.19099998474121,4.357999801635742 C-22.19099998474121,3.808000087738037 -22.17099952697754,3.2679998874664307 -22.121000289916992,2.7279999256134033 C-23.17099952697754,2.9179999828338623 -24.33099937438965,3.058000087738037 -25.570999145507812,3.1579999923706055 C-26.410999298095703,3.2179999351501465 -26.97100067138672,3.257999897003174 -27.2810001373291,3.2780001163482666 C-27.60099983215332,4.9079999923706055 -28.051000595092773,6.9079999923706055 -28.621000289916992,9.277999877929688 C-28.961000442504883,10.668000221252441 -29.60099983215332,11.368000030517578 -30.541000366210938,11.368000030517578 C-31.570999145507812,11.368000030517578 -32.08100128173828,10.89799976348877 -32.08100128173828,9.968000411987305 C-32.08100128173828,9.767999649047852 -32.04100036621094,9.477999687194824 -31.961000442504883,9.107999801635742 C-31.410999298095703,6.918000221252441 -30.981000900268555,5.058000087738037 -30.660999298095703,3.5380001068115234 C-30.660999298095703,3.5380001068115234 -31.81100082397461,3.5880000591278076 -31.81100082397461,3.5880000591278076 C-32.340999603271484,3.5880000591278076 -32.73099899291992,3.497999906539917 -32.97100067138672,3.308000087738037 C-33.21099853515625,3.128000020980835 -33.33100128173828,2.828000068664551 -33.33100128173828,2.4079999923706055 C-33.33100128173828,1.8880000114440918 -33.17100143432617,1.4980000257492065 -32.87099838256836,1.2480000257492065 C-32.57099914550781,0.9980000257492065 -32.06100082397461,0.8579999804496765 -31.361000061035156,0.828000009059906 C-31.361000061035156,0.828000009059906 -30.090999603271484,0.777999997138977 -30.090999603271484,0.777999997138977 C-29.67099952697754,-1.472000002861023 -29.461000442504883,-3.191999912261963 -29.461000442504883,-4.381999969482422 C-29.461000442504883,-5.131999969482422 -29.570999145507812,-5.642000198364258 -29.801000595092773,-5.9120001792907715 C-30.020999908447266,-6.191999912261963 -30.320999145507812,-6.322000026702881 -30.69099998474121,-6.322000026702881 C-31.81100082397461,-6.322000026702881 -33.07099914550781,-5.392000198364258 -34.48099899291992,-3.51200008392334 C-34.691001892089844,-3.242000102996826 -34.92100143432617,-3.111999988555908 -35.17100143432617,-3.111999988555908 C-35.4010009765625,-3.111999988555908 -35.590999603271484,-3.2119998931884766 -35.750999450683594,-3.421999931335449 C-35.9109992980957,-3.631999969482422 -35.99100112915039,-3.8919999599456787 -35.99100112915039,-4.211999893188477 C-35.99100112915039,-4.711999893188477 -35.79100036621094,-5.23199987411499 -35.39099884033203,-5.791999816894531 C-34.691001892089844,-6.771999835968018 -33.80099868774414,-7.572000026702881 -32.73099899291992,-8.211999893188477 C-31.650999069213867,-8.842000007629395 -30.570999145507812,-9.152000427246094 -29.461000442504883,-9.152000427246094 C-28.42099952697754,-9.152000427246094 -27.621000289916992,-8.802000045776367 -27.051000595092773,-8.092000007629395 C-26.481000900268555,-7.372000217437744 -26.201000213623047,-6.271999835968018 -26.201000213623047,-4.76200008392334 C-26.201000213623047,-3.431999921798706 -26.391000747680664,-1.6319999694824219 -26.770999908447266,0.6380000114440918 C-26.770999908447266,0.6380000114440918 -24.42099952697754,0.5180000066757202 -24.42099952697754,0.5180000066757202 C-23.410999298095703,0.46799999475479126 -22.551000595092773,0.3880000114440918 -21.83099937438965,0.27799999713897705 C-21.541000366210938,-1.4819999933242798 -21.10099983215332,-3.131999969482422 -20.51099967956543,-4.671999931335449 C-19.92099952697754,-6.202000141143799 -19.180999755859375,-7.452000141143799 -18.301000595092773,-8.411999702453613 C-17.42099952697754,-9.371999740600586 -16.44099998474121,-9.85200023651123 -15.35099983215332,-9.85200023651123 C-14.550999641418457,-9.85200023651123 -13.920999526977539,-9.531999588012695 -13.451000213623047,-8.902000427246094 C-12.991000175476074,-8.272000312805176 -12.76099967956543,-7.441999912261963 -12.76099967956543,-6.421999931335449 C-12.76099967956543,-2.4519999027252197 -14.781000137329102,0.2980000078678131 -18.83099937438965,1.8380000591278076 C-18.881000518798828,2.4779999256134033 -18.900999069213867,3.138000011444092 -18.900999069213867,3.828000068664551 C-18.900999069213867,5.507999897003174 -18.69099998474121,6.697999954223633 -18.2810001373291,7.4079999923706055 C-17.861000061035156,8.107999801635742 -17.2810001373291,8.458000183105469 -16.5310001373291,8.458000183105469 C-15.871000289916992,8.458000183105469 -15.270999908447266,8.288000106811523 -14.730999946594238,7.947999954223633 C-14.180999755859375,7.5980000495910645 -13.571000099182129,7.007999897003174 -12.880999565124512,6.177999973297119 C-12.690999984741211,5.958000183105469 -12.470999717712402,5.8480000495910645 -12.230999946594238,5.8480000495910645z"></path></g></g></g><g clip-path="url(#__lottie_element_97)" transform="matrix(1,0,0,1,423,564)" opacity="1" style="display: block;"><g transform="matrix(1,0,0,1,307.5,186.29299926757812)" opacity="1" style="display: block;"><g opacity="1" transform="matrix(3,0,0,3,0,0)"><path fill="rgb(105,170,86)" fill-opacity="1" d=" M102.36100006103516,-61.902000427246094 C102.36100006103516,-61.902000427246094 102.36100006103516,53.46799850463867 102.36100006103516,53.46799850463867 C102.36100006103516,58.12799835205078 98.58100128173828,61.89799880981445 93.9209976196289,61.89799880981445 C93.9209976196289,61.89799880981445 -93.91899871826172,61.89799880981445 -93.91899871826172,61.89799880981445 C-98.5790023803711,61.89799880981445 -102.35900115966797,58.12799835205078 -102.35900115966797,53.46799850463867 C-102.35900115966797,53.46799850463867 -102.35900115966797,-61.902000427246094 -102.35900115966797,-61.902000427246094 C-102.35900115966797,-61.902000427246094 1.121000051498413,19.718000411987305 1.121000051498413,19.718000411987305 C1.121000051498413,19.718000411987305 102.36100006103516,-61.902000427246094 102.36100006103516,-61.902000427246094z"></path></g></g><g transform="matrix(1,0,0,1,308.70599365234375,248.21400451660156)" opacity="1" style="display: block;"><g opacity="1" transform="matrix(3,0,0,3,0,0)"><path fill="rgb(54,149,109)" fill-opacity="1" d=" M100.81999969482422,37.04800033569336 C100.81999969482422,37.04800033569336 6.019999980926514,-39.391998291015625 6.019999980926514,-39.391998291015625 C2.930000066757202,-41.88199996948242 -1.4800000190734863,-41.88199996948242 -4.570000171661377,-39.391998291015625 C-4.570000171661377,-39.391998291015625 -100.81999969482422,38.20800018310547 -100.81999969482422,38.20800018310547 C-99.2699966430664,40.077999114990234 -96.94000244140625,41.257999420166016 -94.33000183105469,41.257999420166016 C-94.33000183105469,41.257999420166016 93.5199966430664,41.257999420166016 93.5199966430664,41.257999420166016 C96.63999938964844,41.257999420166016 99.36000061035156,39.55799865722656 100.81999969482422,37.04800033569336z"></path></g></g></g><g style="display: block;" transform="matrix(1,0,0,1,993.4509887695312,129.63099670410156)" opacity="1"><g opacity="1" transform="matrix(-2.045994997024536,2.194061040878296,-2.194061040878296,-2.045994997024536,0,0)"><path fill="rgb(255,255,255)" fill-opacity="1" d=" M6.110000133514404,6.118000030517578 C6.110000133514404,6.118000030517578 -7.340000152587891,4.567999839782715 -7.340000152587891,4.567999839782715 C-7.340000152587891,4.567999839782715 -6.110000133514404,-6.122000217437744 -6.110000133514404,-6.122000217437744 C-6.110000133514404,-6.122000217437744 7.340000152587891,-4.561999797821045 7.340000152587891,-4.561999797821045 C7.340000152587891,-4.561999797821045 6.110000133514404,6.118000030517578 6.110000133514404,6.118000030517578z"></path></g></g><g style="display: block;" transform="matrix(1,0,0,1,609.4509887695312,139.63099670410156)" opacity="1"><g opacity="1" transform="matrix(-2.045994997024536,2.194061040878296,-2.194061040878296,-2.045994997024536,0,0)"><path fill="rgb(54,149,109)" fill-opacity="1" d=" M6.110000133514404,6.118000030517578 C6.110000133514404,6.118000030517578 -7.340000152587891,4.567999839782715 -7.340000152587891,4.567999839782715 C-7.340000152587891,4.567999839782715 -6.110000133514404,-6.122000217437744 -6.110000133514404,-6.122000217437744 C-6.110000133514404,-6.122000217437744 7.340000152587891,-4.561999797821045 7.340000152587891,-4.561999797821045 C7.340000152587891,-4.561999797821045 6.110000133514404,6.118000030517578 6.110000133514404,6.118000030517578z"></path></g></g><g style="display: block;" transform="matrix(1.0813711881637573,0,0,1.0813711881637573,587.68798828125,1020.9140014648438)" opacity="1"><g opacity="1" transform="matrix(-2.045994997024536,2.194061040878296,-2.194061040878296,-2.045994997024536,0,0)"><path fill="rgb(105,170,86)" fill-opacity="1" d=" M6.110000133514404,6.118000030517578 C6.110000133514404,6.118000030517578 -7.340000152587891,4.567999839782715 -7.340000152587891,4.567999839782715 C-7.340000152587891,4.567999839782715 -6.110000133514404,-6.122000217437744 -6.110000133514404,-6.122000217437744 C-6.110000133514404,-6.122000217437744 7.340000152587891,-4.561999797821045 7.340000152587891,-4.561999797821045 C7.340000152587891,-4.561999797821045 6.110000133514404,6.118000030517578 6.110000133514404,6.118000030517578z"></path></g></g><g style="display: block;" transform="matrix(1,0,0,1,196.9739990234375,352.5740051269531)" opacity="1"><g opacity="1" transform="matrix(-2.045994997024536,2.194061040878296,-2.194061040878296,-2.045994997024536,0,0)"><path fill="rgb(255,212,0)" fill-opacity="1" d=" M6.110000133514404,6.118000030517578 C6.110000133514404,6.118000030517578 -7.340000152587891,4.567999839782715 -7.340000152587891,4.567999839782715 C-7.340000152587891,4.567999839782715 -6.110000133514404,-6.122000217437744 -6.110000133514404,-6.122000217437744 C-6.110000133514404,-6.122000217437744 7.340000152587891,-4.561999797821045 7.340000152587891,-4.561999797821045 C7.340000152587891,-4.561999797821045 6.110000133514404,6.118000030517578 6.110000133514404,6.118000030517578z"></path></g></g><g style="display: block;" transform="matrix(1,0,0,1,839.030029296875,836.2100219726562)" opacity="1"><g opacity="1" transform="matrix(-2.045994997024536,2.194061040878296,-2.194061040878296,-2.045994997024536,0,0)"><path fill="rgb(228,230,235)" fill-opacity="1" d=" M6.15500020980835,1.7309999465942383 C6.15500020980835,1.7309999465942383 -3.075000047683716,5.611000061035156 -3.075000047683716,5.611000061035156 C-3.075000047683716,5.611000061035156 -6.15500020980835,-1.7289999723434448 -6.15500020980835,-1.7289999723434448 C-6.15500020980835,-1.7289999723434448 3.075000047683716,-5.609000205993652 3.075000047683716,-5.609000205993652 C3.075000047683716,-5.609000205993652 6.15500020980835,1.7309999465942383 6.15500020980835,1.7309999465942383z"></path></g></g><g style="display: block;" transform="matrix(1,0,0,1,242.6219940185547,684.52099609375)" opacity="1"><g opacity="1" transform="matrix(-2.623859167098999,-1.4544289112091064,1.4544289112091064,-2.623859167098999,0,0)"><path fill="rgb(105,170,86)" fill-opacity="1" d=" M6.15500020980835,1.7309999465942383 C6.15500020980835,1.7309999465942383 -3.075000047683716,5.611000061035156 -3.075000047683716,5.611000061035156 C-3.075000047683716,5.611000061035156 -6.15500020980835,-1.7289999723434448 -6.15500020980835,-1.7289999723434448 C-6.15500020980835,-1.7289999723434448 3.075000047683716,-5.609000205993652 3.075000047683716,-5.609000205993652 C3.075000047683716,-5.609000205993652 6.15500020980835,1.7309999465942383 6.15500020980835,1.7309999465942383z"></path></g></g><g style="display: block;" transform="matrix(1.0546531677246094,0,0,1.0546531677246094,698.9000244140625,333.9809875488281)" opacity="1"><g opacity="1" transform="matrix(-2.045994997024536,2.194061040878296,-2.194061040878296,-2.045994997024536,0,0)"><path fill="rgb(217,217,217)" fill-opacity="1" d=" M6.15500020980835,1.7309999465942383 C6.15500020980835,1.7309999465942383 -3.075000047683716,5.611000061035156 -3.075000047683716,5.611000061035156 C-3.075000047683716,5.611000061035156 -6.15500020980835,-1.7289999723434448 -6.15500020980835,-1.7289999723434448 C-6.15500020980835,-1.7289999723434448 3.075000047683716,-5.609000205993652 3.075000047683716,-5.609000205993652 C3.075000047683716,-5.609000205993652 6.15500020980835,1.7309999465942383 6.15500020980835,1.7309999465942383z"></path></g></g><g style="display: block;" transform="matrix(1,0,0,1,1295.3079833984375,527.6690063476562)" opacity="1"><g opacity="1" transform="matrix(-2.623859167098999,-1.4544289112091064,1.4544289112091064,-2.623859167098999,0,0)"><path fill="rgb(24,135,121)" fill-opacity="1" d=" M6.15500020980835,1.7309999465942383 C6.15500020980835,1.7309999465942383 -3.075000047683716,5.611000061035156 -3.075000047683716,5.611000061035156 C-3.075000047683716,5.611000061035156 -6.15500020980835,-1.7289999723434448 -6.15500020980835,-1.7289999723434448 C-6.15500020980835,-1.7289999723434448 3.075000047683716,-5.609000205993652 3.075000047683716,-5.609000205993652 C3.075000047683716,-5.609000205993652 6.15500020980835,1.7309999465942383 6.15500020980835,1.7309999465942383z"></path></g></g><g style="display: block;" transform="matrix(1,0,0,1,545.7100219726562,574.760986328125)" opacity="1"><g opacity="1" transform="matrix(0.9270510077476501,2.8531694412231445,-2.8531694412231445,0.9270510077476501,0,0)"><path fill="rgb(105,170,86)" fill-opacity="1" d=" M6.15500020980835,1.7309999465942383 C6.15500020980835,1.7309999465942383 -3.075000047683716,5.611000061035156 -3.075000047683716,5.611000061035156 C-3.075000047683716,5.611000061035156 -6.15500020980835,-1.7289999723434448 -6.15500020980835,-1.7289999723434448 C-6.15500020980835,-1.7289999723434448 3.075000047683716,-5.609000205993652 3.075000047683716,-5.609000205993652 C3.075000047683716,-5.609000205993652 6.15500020980835,1.7309999465942383 6.15500020980835,1.7309999465942383z"></path></g></g><g style="display: block;" transform="matrix(1.0736788511276245,0,0,1.0736788511276245,1161.1910400390625,376.3330078125)" opacity="1"><g opacity="1" transform="matrix(-2.045994997024536,2.194061040878296,-2.194061040878296,-2.045994997024536,0,0)"><path fill="rgb(255,213,0)" fill-opacity="1" d=" M6.006999969482422,9.72700023651123 C6.006999969482422,9.72700023651123 -10.682999610900879,4.046999931335449 -10.682999610900879,4.046999931335449 C-10.682999610900879,4.046999931335449 -6.002999782562256,-9.722999572753906 -6.002999782562256,-9.722999572753906 C-6.002999782562256,-9.722999572753906 10.687000274658203,-4.043000221252441 10.687000274658203,-4.043000221252441 C10.687000274658203,-4.043000221252441 6.006999969482422,9.72700023651123 6.006999969482422,9.72700023651123z"></path></g></g><g clip-path="url(#__lottie_element_44)" transform="matrix(1,0,0,1,960,669)" opacity="1" style="display: block;"><g filter="url(#__lottie_element_65)" transform="matrix(1,0,0,1,104.3280029296875,147.96600341796875)" opacity="1" style="display: block;"><g opacity="1" transform="matrix(3,0,0,3,0,0)"><path fill="rgb(255,255,255)" fill-opacity="1" d=" M-34.7760009765625,-47.05399703979492 C-34.7760009765625,-48.30570602416992 -33.759708404541016,-49.321998596191406 -32.507999420166016,-49.321998596191406 C-32.507999420166016,-49.321998596191406 32.50599670410156,-49.321998596191406 32.50599670410156,-49.321998596191406 C33.75770568847656,-49.321998596191406 34.77399826049805,-48.30570602416992 34.77399826049805,-47.05399703979492 C34.77399826049805,-47.05399703979492 34.77399826049805,47.04999923706055 34.77399826049805,47.04999923706055 C34.77399826049805,48.30170822143555 33.75770568847656,49.31800079345703 32.50599670410156,49.31800079345703 C32.50599670410156,49.31800079345703 -32.507999420166016,49.31800079345703 -32.507999420166016,49.31800079345703 C-33.759708404541016,49.31800079345703 -34.7760009765625,48.30170822143555 -34.7760009765625,47.04999923706055 C-34.7760009765625,47.04999923706055 -34.7760009765625,-47.05399703979492 -34.7760009765625,-47.05399703979492z"></path></g></g><g style="display: block;" transform="matrix(0.43935930728912354,0,0,0.43935930728912354,80.9364013671875,227.34530639648438)" opacity="1"><g opacity="1" transform="matrix(3,0,0,3,0,0)"><path fill="rgb(200,200,200)" fill-opacity="0.47000000000000003" d=" M-13.607999801635742,-1.88100004196167 C-13.607999801635742,-1.88100004196167 13.612000465393066,-1.88100004196167 13.612000465393066,-1.88100004196167 C13.612000465393066,-1.88100004196167 13.612000465393066,1.878999948501587 13.612000465393066,1.878999948501587 C13.612000465393066,1.878999948501587 -13.607999801635742,1.878999948501587 -13.607999801635742,1.878999948501587 C-13.607999801635742,1.878999948501587 -13.607999801635742,-1.88100004196167 -13.607999801635742,-1.88100004196167z"></path></g></g><g transform="matrix(0.3086291253566742,0,0,1,62.532562255859375,202.24900817871094)" opacity="1" style="display: block;"><g opacity="1" transform="matrix(3,0,0,3,0,0)"><path fill="rgb(200,200,200)" fill-opacity="0.47000000000000003" d=" M-19.908000946044922,-1.88100004196167 C-19.908000946044922,-1.88100004196167 19.91200065612793,-1.88100004196167 19.91200065612793,-1.88100004196167 C19.91200065612793,-1.88100004196167 19.91200065612793,1.878999948501587 19.91200065612793,1.878999948501587 C19.91200065612793,1.878999948501587 -19.908000946044922,1.878999948501587 -19.908000946044922,1.878999948501587 C-19.908000946044922,1.878999948501587 -19.908000946044922,-1.88100004196167 -19.908000946044922,-1.88100004196167z"></path></g></g><g transform="matrix(1,0,0,1,102.9000015258789,110.85199737548828)" opacity="1" style="display: block;"><g opacity="1" transform="matrix(3,0,0,3,0,0)"><path fill="rgb(232,232,232)" fill-opacity="1" d=" M0,19.518999099731445 C-10.819999694824219,19.518999099731445 -19.600000381469727,10.779000282287598 -19.600000381469727,-0.0010000000474974513 C-19.600000381469727,-10.781000137329102 -10.819999694824219,-19.520999908447266 0,-19.520999908447266 C10.819999694824219,-19.520999908447266 19.600000381469727,-10.781000137329102 19.600000381469727,-0.0010000000474974513 C19.600000381469727,10.779000282287598 10.819999694824219,19.518999099731445 0,19.518999099731445z M0,9.067000389099121 C5.03000020980835,9.067000389099121 9.100000381469727,5.006999969482422 9.100000381469727,-0.003000000026077032 C9.100000381469727,-5.002999782562256 5.03000020980835,-9.062999725341797 0,-9.062999725341797 C-5.03000020980835,-9.062999725341797 -9.100000381469727,-5.002999782562256 -9.100000381469727,-0.003000000026077032 C-9.100000381469727,5.006999969482422 -5.03000020980835,9.067000389099121 0,9.067000389099121z"></path></g></g><g mask="url(#__lottie_element_48)" style="display: block;"><g transform="matrix(1,0,0,1,140.4860076904297,135.947998046875)" opacity="1"><g opacity="1" transform="matrix(3,0,0,3,0,0)"><path fill="rgb(242,100,35)" fill-opacity="1" d=" M-12.512999534606934,-17.25200080871582 C-12.512999534606934,-17.25200080871582 -11.744999885559082,26.753000259399414 -11.744999885559082,26.753000259399414 C-11.744999885559082,26.753000259399414 1.5479999780654907,7.506999969482422 1.5479999780654907,7.506999969482422 C1.5479999780654907,7.506999969482422 29.864999771118164,-33.49100112915039 29.864999771118164,-33.49100112915039 C29.864999771118164,-33.49100112915039 11.447999954223633,-40.06700134277344 11.447999954223633,-40.06700134277344 C11.447999954223633,-40.06700134277344 -12.862000465393066,-38.867000579833984 -12.862000465393066,-38.867000579833984 C-12.862000465393066,-38.867000579833984 -12.512999534606934,-17.25200080871582 -12.512999534606934,-17.25200080871582z"></path></g></g></g></g><g style="display: block;" transform="matrix(1,0,0,1,1203.47900390625,519.0449829101562)" opacity="1"><g opacity="1" transform="matrix(3,0,0,3,0,0)"><path fill="rgb(110,172,84)" fill-opacity="1" d=" M-18.934999465942383,-10.52299976348877 C-13.975000381469727,-20.96299934387207 -1.465000033378601,-25.413000106811523 8.984999656677246,-20.452999114990234 C19.44499969482422,-15.503000259399414 23.895000457763672,-3.013000011444092 18.934999465942383,7.427000045776367 C14.4350004196167,16.886999130249023 3.755000114440918,21.427000045776367 -5.985000133514404,18.517000198364258 C-5.985000133514404,18.517000198364258 -11.755000114440918,22.48699951171875 -11.755000114440918,22.48699951171875 C-11.755000114440918,22.48699951171875 -12.324999809265137,15.38700008392334 -12.324999809265137,15.38700008392334 C-20.334999084472656,9.586999893188477 -23.334999084472656,-1.2630000114440918 -18.934999465942383,-10.52299976348877"></path></g></g><g style="display: block;" transform="matrix(1,0,0,1,1205.6920166015625,516.3580322265625)" opacity="1"><g opacity="1" transform="matrix(3,0,0,3,0,0)"><path fill="rgb(255,254,254)" fill-opacity="1" d=" M-1.746999979019165,8.885000228881836 C-1.746999979019165,8.885000228881836 -9.897000312805176,2.934999942779541 -9.897000312805176,2.934999942779541 C-9.897000312805176,2.934999942779541 -7.086999893188477,-0.9049999713897705 -7.086999893188477,-0.9049999713897705 C-7.086999893188477,-0.9049999713897705 -2.6570000648498535,2.325000047683716 -2.6570000648498535,2.325000047683716 C-2.6570000648498535,2.325000047683716 6.14300012588501,-8.885000228881836 6.14300012588501,-8.885000228881836 C6.14300012588501,-8.885000228881836 9.892999649047852,-5.945000171661377 9.892999649047852,-5.945000171661377 C9.892999649047852,-5.945000171661377 -1.746999979019165,8.885000228881836 -1.746999979019165,8.885000228881836"></path></g></g><g clip-path="url(#__lottie_element_6)" style="display: block;" transform="matrix(1,0,0,1,366,719.5)" opacity="1"><g filter="url(#__lottie_element_35)" style="display: block;" transform="matrix(1,0,0,1,107,141.14700317382812)" opacity="1"><g opacity="1" transform="matrix(3,0,0,3,0,0)"><path fill="rgb(255,255,255)" fill-opacity="1" d=" M-36,-30.951000213623047 C-36,-30.951000213623047 -36,26.18899917602539 -36,26.18899917602539 C-36,28.819000244140625 -33.9900016784668,30.948999404907227 -31.5,30.948999404907227 C-31.5,30.948999404907227 31.5,30.948999404907227 31.5,30.948999404907227 C33.9900016784668,30.948999404907227 36,28.819000244140625 36,26.18899917602539 C36,26.18899917602539 36,-30.951000213623047 36,-30.951000213623047 C36,-30.951000213623047 -36,-30.951000213623047 -36,-30.951000213623047z"></path></g></g><g style="display: block;" transform="matrix(1,0,0,1,107,32.441001892089844)" opacity="1"><g opacity="1" transform="matrix(3,0,0,3,0,0)"><path fill="rgb(232,232,232)" fill-opacity="1" d=" M-36,-9.814000129699707 C-36,-9.814000129699707 36,-9.814000129699707 36,-9.814000129699707 C36,-9.814000129699707 36,9.815999984741211 36,9.815999984741211 C36,9.815999984741211 -36,9.815999984741211 -36,9.815999984741211 C-36,9.815999984741211 -36,-9.814000129699707 -36,-9.814000129699707z"></path></g></g><g style="display: block;" transform="matrix(1,0,0,1,32.75,32.441001892089844)" opacity="1"><g opacity="1" transform="matrix(3,0,0,3,0,0)"><path fill="rgb(255,255,255)" fill-opacity="1" d=" M-2.25,-2.265000104904175 C-2.25,-2.265000104904175 2.25,-2.265000104904175 2.25,-2.265000104904175 C2.25,-2.265000104904175 2.25,2.265000104904175 2.25,2.265000104904175 C2.25,2.265000104904175 -2.25,2.265000104904175 -2.25,2.265000104904175 C-2.25,2.265000104904175 -2.25,-2.265000104904175 -2.25,-2.265000104904175z"></path></g></g><g style="display: block;" transform="matrix(1,0,0,1,59.75,32.441001892089844)" opacity="1"><g opacity="1" transform="matrix(3,0,0,3,0,0)"><path fill="rgb(255,255,255)" fill-opacity="1" d=" M-2.25,-2.265000104904175 C-2.25,-2.265000104904175 2.25,-2.265000104904175 2.25,-2.265000104904175 C2.25,-2.265000104904175 2.25,2.265000104904175 2.25,2.265000104904175 C2.25,2.265000104904175 -2.25,2.265000104904175 -2.25,2.265000104904175 C-2.25,2.265000104904175 -2.25,-2.265000104904175 -2.25,-2.265000104904175z"></path></g></g><g style="display: block;" transform="matrix(1,0,0,1,134,32.441001892089844)" opacity="1"><g opacity="1" transform="matrix(3,0,0,3,0,0)"><path fill="rgb(255,255,255)" fill-opacity="1" d=" M15.75,2.265000104904175 C15.75,2.265000104904175 -15.75,2.265000104904175 -15.75,2.265000104904175 C-16.989999771118164,2.265000104904175 -18,1.2450000047683716 -18,-0.004999999888241291 C-18,-1.2549999952316284 -16.989999771118164,-2.265000104904175 -15.75,-2.265000104904175 C-15.75,-2.265000104904175 15.75,-2.265000104904175 15.75,-2.265000104904175 C16.989999771118164,-2.265000104904175 18,-1.2549999952316284 18,-0.004999999888241291 C18,1.2450000047683716 16.989999771118164,2.265000104904175 15.75,2.265000104904175z"></path></g></g><g style="display: block;" transform="matrix(1,0,0,0.09021047502756119,50.75,195.52313232421875)" opacity="1"><g opacity="1" transform="matrix(3,0,0,3,0,0)"><path fill="rgb(255,202,89)" fill-opacity="1" d=" M-6.75,-8.303999900817871 C-6.75,-8.303999900817871 6.75,-8.303999900817871 6.75,-8.303999900817871 C6.75,-8.303999900817871 6.75,8.305999755859375 6.75,8.305999755859375 C6.75,8.305999755859375 -6.75,8.305999755859375 -6.75,8.305999755859375 C-6.75,8.305999755859375 -6.75,-8.303999900817871 -6.75,-8.303999900817871z"></path></g></g><g style="display: block;" transform="matrix(1,0,0,0.38303813338279724,104.75,176.95437622070312)" opacity="1"><g opacity="1" transform="matrix(3,0,0,3,0,0)"><path fill="rgb(100,168,87)" fill-opacity="1" d=" M-6.75,-18.118000030517578 C-6.75,-18.118000030517578 6.75,-18.118000030517578 6.75,-18.118000030517578 C6.75,-18.118000030517578 6.75,18.121999740600586 6.75,18.121999740600586 C6.75,18.121999740600586 -6.75,18.121999740600586 -6.75,18.121999740600586 C-6.75,18.121999740600586 -6.75,-18.118000030517578 -6.75,-18.118000030517578z"></path></g></g><g style="display: block;" transform="matrix(1,0,0,0.8278745412826538,158.75,164.01840209960938)" opacity="1"><g opacity="1" transform="matrix(3,0,0,3,0,0)"><path fill="rgb(242,100,35)" fill-opacity="1" d=" M-6.75,-13.588000297546387 C-6.75,-13.588000297546387 6.75,-13.588000297546387 6.75,-13.588000297546387 C6.75,-13.588000297546387 6.75,13.592000007629395 6.75,13.592000007629395 C6.75,13.592000007629395 -6.75,13.592000007629395 -6.75,13.592000007629395 C-6.75,13.592000007629395 -6.75,-13.588000297546387 -6.75,-13.588000297546387z"></path></g></g><g style="display: block;" transform="matrix(1,0,0,1,104.75,200.02899169921875)" opacity="1"><g opacity="1" transform="matrix(3,0,0,3,0,0)"><path fill="rgb(119,149,158)" fill-opacity="1" d=" M27,2.265000104904175 C27,2.265000104904175 -27,2.265000104904175 -27,2.265000104904175 C-28.239999771118164,2.265000104904175 -29.25,1.2450000047683716 -29.25,-0.004999999888241291 C-29.25,-1.2549999952316284 -28.239999771118164,-2.265000104904175 -27,-2.265000104904175 C-27,-2.265000104904175 27,-2.265000104904175 27,-2.265000104904175 C28.239999771118164,-2.265000104904175 29.25,-1.2549999952316284 29.25,-0.004999999888241291 C29.25,1.2450000047683716 28.239999771118164,2.265000104904175 27,2.265000104904175z"></path></g></g></g></g></svg>